<svg width="172" height="114" viewBox="0 0 172 114" fill="none" xmlns="http://www.w3.org/2000/svg">
    <path d="M35.4828 30.4385H29.75V36.1713C29.75 37.0001 29.4208 37.7949 28.8348 38.381C28.2487 38.967 27.4538 39.2963 26.625 39.2963C25.7962 39.2963 25.0014 38.967 24.4153 38.381C23.8293 37.7949 23.5 37.0001 23.5 36.1713V30.4385H17.7673C16.9385 30.4385 16.1437 30.1093 15.5576 29.5232C14.9716 28.9372 14.6423 28.1423 14.6423 27.3135C14.6423 26.4847 14.9716 25.6899 15.5576 25.1038C16.1437 24.5178 16.9385 24.1885 17.7673 24.1885H23.5V18.4558C23.5 17.627 23.8293 16.8321 24.4153 16.2461C25.0014 15.66 25.7962 15.3308 26.625 15.3308C27.4538 15.3308 28.2487 15.66 28.8348 16.2461C29.4208 16.8321 29.75 17.627 29.75 18.4558V24.1885H35.4828C36.301 24.2045 37.0804 24.5407 37.6534 25.125C38.2264 25.7094 38.5474 26.4951 38.5474 27.3135C38.5474 28.1319 38.2264 28.9177 37.6534 29.502C37.0804 30.0863 36.301 30.4226 35.4828 30.4385ZM53.1036 13.335V41.2921C53.0998 44.6062 51.7816 47.7834 49.4383 50.1268C47.0949 52.4701 43.9177 53.7883 40.6036 53.7921H12.6465C9.33244 53.7883 6.15522 52.4701 3.81183 50.1268C1.46845 47.7834 0.150272 44.6062 0.146484 41.2921V13.335C0.150272 10.0209 1.46845 6.84369 3.81183 4.50031C6.15522 2.15693 9.33244 0.838749 12.6465 0.834961H40.6036C43.9177 0.838749 47.0949 2.15693 49.4383 4.50031C51.7816 6.84369 53.0998 10.0209 53.1036 13.335ZM46.8536 13.335C46.852 11.6779 46.1929 10.0891 45.0212 8.91737C43.8495 7.74563 42.2607 7.08662 40.6036 7.08496H12.6465C10.9894 7.08662 9.40064 7.74563 8.22889 8.91737C7.05715 10.0891 6.39814 11.6779 6.39648 13.335V41.2921C6.39814 42.9492 7.05715 44.538 8.22889 45.7097C9.40064 46.8814 10.9894 47.5405 12.6465 47.5421H40.6036C42.2607 47.5405 43.8495 46.8814 45.0212 45.7097C46.1929 44.538 46.852 42.9492 46.8536 41.2921V13.335ZM94.8578 24.1885H77.1423C76.3241 24.2045 75.5447 24.5408 74.9717 25.1251C74.3987 25.7094 74.0777 26.4952 74.0778 27.3136C74.0778 28.132 74.3988 28.9178 74.9718 29.5021C75.5449 30.0864 76.3243 30.4226 77.1425 30.4385H94.8578C95.676 30.4226 96.4554 30.0863 97.0284 29.502C97.6014 28.9177 97.9224 28.1319 97.9224 27.3135C97.9224 26.4951 97.6014 25.7094 97.0284 25.125C96.4554 24.5407 95.676 24.2045 94.8578 24.1885ZM154.233 46.0635H136.517C135.699 46.0795 134.92 46.4158 134.347 47.0001C133.774 47.5844 133.453 48.3702 133.453 49.1886C133.453 50.007 133.774 50.7928 134.347 51.3771C134.92 51.9614 135.699 52.2976 136.518 52.3135H154.233C155.051 52.2976 155.83 51.9613 156.403 51.377C156.976 50.7927 157.297 50.0069 157.297 49.1885C157.297 48.3701 156.976 47.5844 156.403 47C155.83 46.4157 155.051 46.0795 154.233 46.0635ZM154.233 61.6885H136.517C135.699 61.7045 134.92 62.0408 134.347 62.6251C133.774 63.2094 133.453 63.9952 133.453 64.8136C133.453 65.632 133.774 66.4178 134.347 67.0021C134.92 67.5864 135.699 67.9226 136.518 67.9385H154.233C155.051 67.9226 155.83 67.5863 156.403 67.002C156.976 66.4177 157.297 65.6319 157.297 64.8135C157.297 63.9951 156.976 63.2094 156.403 62.625C155.83 62.0407 155.051 61.7045 154.233 61.6885ZM112.479 13.335V41.2921C112.475 44.6062 111.157 47.7834 108.813 50.1268C106.47 52.4701 103.293 53.7883 99.9786 53.7921H72.0215C68.7074 53.7883 65.5302 52.4701 63.1868 50.1268C60.8435 47.7834 59.5253 44.6062 59.5215 41.2921V13.335C59.5253 10.0209 60.8435 6.84369 63.1868 4.50031C65.5302 2.15693 68.7074 0.838749 72.0215 0.834961H99.9786C103.293 0.838749 106.47 2.15693 108.813 4.50031C111.157 6.84369 112.475 10.0209 112.479 13.335ZM106.229 13.335C106.227 11.6779 105.568 10.0891 104.396 8.91737C103.224 7.74563 101.636 7.08662 99.9786 7.08496H72.0215C70.3644 7.08662 68.7756 7.74563 67.6039 8.91737C66.4322 10.0891 65.7731 11.6779 65.7715 13.335V41.2921C65.7731 42.9492 66.4322 44.538 67.6039 45.7097C68.7756 46.8814 70.3644 47.5405 72.0215 47.5421H99.9786C101.636 47.5405 103.224 46.8814 104.396 45.7097C105.568 44.538 106.227 42.9492 106.229 41.2921V13.335ZM171.854 13.335V100.666C171.85 103.98 170.532 107.157 168.189 109.501C165.845 111.844 162.668 113.162 159.354 113.166H131.396C128.082 113.162 124.905 111.844 122.562 109.501C120.218 107.157 118.9 103.98 118.896 100.666V13.335C118.9 10.0209 120.218 6.84369 122.562 4.50031C124.905 2.15693 128.082 0.838749 131.396 0.834961H159.354C162.668 0.838749 165.845 2.15693 168.188 4.50031C170.532 6.84369 171.85 10.0209 171.854 13.335ZM165.604 13.335C165.602 11.6779 164.943 10.0891 163.771 8.91737C162.599 7.74563 161.011 7.08662 159.354 7.08496H131.396C129.739 7.08662 128.151 7.74563 126.979 8.91737C125.807 10.0891 125.148 11.6779 125.146 13.335V100.666C125.148 102.323 125.807 103.911 126.979 105.083C128.151 106.255 129.739 106.914 131.396 106.916H159.354C161.011 106.914 162.599 106.255 163.771 105.083C164.943 103.911 165.602 102.323 165.604 100.666V13.335ZM35.0967 78.2169C34.8066 77.9266 34.4622 77.6964 34.0831 77.5393C33.704 77.3822 33.2976 77.3013 32.8873 77.3013C32.4769 77.3013 32.0705 77.3822 31.6914 77.5393C31.3123 77.6964 30.9679 77.9266 30.6778 78.2169L26.625 82.2696L22.5723 78.2169C21.9863 77.6309 21.1915 77.3017 20.3628 77.3017C19.5341 77.3017 18.7393 77.6309 18.1534 78.2169C17.5674 78.8029 17.2382 79.5976 17.2382 80.4263C17.2382 81.255 17.5674 82.0498 18.1534 82.6358L22.2061 86.6885L18.1534 90.7413C17.5674 91.3273 17.2382 92.122 17.2382 92.9507C17.2382 93.7794 17.5674 94.5742 18.1534 95.1602C18.7393 95.7462 19.5341 96.0754 20.3628 96.0754C21.1915 96.0754 21.9863 95.7462 22.5723 95.1602L26.625 91.1075L30.6778 95.1602C31.2638 95.7462 32.0586 96.0754 32.8873 96.0754C33.716 96.0754 34.5107 95.7462 35.0967 95.1602C35.6827 94.5742 36.0119 93.7794 36.0119 92.9507C36.0119 92.122 35.6827 91.3273 35.0967 90.7413L31.044 86.6885L35.0967 82.6358C35.387 82.3457 35.6172 82.0013 35.7743 81.6221C35.9314 81.243 36.0123 80.8367 36.0123 80.4263C36.0123 80.016 35.9314 79.6096 35.7743 79.2305C35.6172 78.8514 35.387 78.507 35.0967 78.2169ZM53.1036 72.7115V100.666C53.1001 103.98 51.782 107.157 49.4385 109.501C47.0951 111.844 43.9177 113.162 40.6036 113.166H12.6465C9.33236 113.162 6.15498 111.844 3.81154 109.501C1.4681 107.157 0.150008 103.98 0.146484 100.666V72.7115C0.150008 69.3974 1.4681 66.22 3.81154 63.8766C6.15498 61.5331 9.33236 60.215 12.6465 60.2115H40.6036C43.9177 60.215 47.0951 61.5331 49.4385 63.8766C51.782 66.22 53.1001 69.3974 53.1036 72.7115ZM46.8536 72.7115C46.8517 71.0545 46.1926 69.4658 45.0209 68.2942C43.8492 67.1225 42.2606 66.4634 40.6036 66.4615H12.6465C10.9895 66.4634 9.40085 67.1225 8.22916 68.2942C7.05747 69.4658 6.39838 71.0545 6.39648 72.7115V100.666C6.39838 102.323 7.05747 103.911 8.22916 105.083C9.40085 106.255 10.9895 106.914 12.6465 106.916H40.6036C42.2606 106.914 43.8492 106.255 45.0209 105.083C46.1926 103.911 46.8517 102.323 46.8536 100.666V72.7115ZM112.479 72.7115V100.666C112.475 103.98 111.157 107.157 108.814 109.501C106.47 111.844 103.293 113.162 99.9786 113.166H72.0215C68.7074 113.162 65.53 111.844 63.1865 109.501C60.8431 107.157 59.525 103.98 59.5215 100.666V72.7115C59.525 69.3974 60.8431 66.22 63.1865 63.8766C65.53 61.5331 68.7074 60.215 72.0215 60.2115H99.9786C103.293 60.215 106.47 61.5331 108.814 63.8766C111.157 66.22 112.475 69.3974 112.479 72.7115ZM106.229 72.7115C106.227 71.0545 105.568 69.4658 104.396 68.2942C103.224 67.1225 101.636 66.4634 99.9786 66.4615H72.0215C70.3645 66.4634 68.7759 67.1225 67.6042 68.2942C66.4325 69.4658 65.7734 71.0545 65.7715 72.7115V100.666C65.7734 102.323 66.4325 103.911 67.6042 105.083C68.7759 106.255 70.3645 106.914 72.0215 106.916H99.9786C101.636 106.914 103.224 106.255 104.396 105.083C105.568 103.911 106.227 102.323 106.229 100.666V72.7115ZM86 75.6017C85.1404 75.615 84.3205 75.9658 83.7173 76.5784C83.114 77.191 82.7759 78.0162 82.7759 78.876C82.7759 79.7357 83.114 80.561 83.7173 81.1736C84.3205 81.7862 85.1404 82.137 86 82.1503C86.8597 82.137 87.6796 81.7862 88.2828 81.1736C88.886 80.561 89.2242 79.7357 89.2242 78.876C89.2242 78.0162 88.886 77.191 88.2828 76.5784C87.6796 75.9658 86.8597 75.615 86 75.6017ZM86 91.2267C85.1404 91.24 84.3205 91.5908 83.7173 92.2034C83.114 92.816 82.7759 93.6412 82.7759 94.501C82.7759 95.3607 83.114 96.186 83.7173 96.7986C84.3205 97.4112 85.1404 97.762 86 97.7753C86.8597 97.762 87.6796 97.4112 88.2828 96.7986C88.886 96.186 89.2242 95.3607 89.2242 94.501C89.2242 93.6412 88.886 92.816 88.2828 92.2034C87.6796 91.5908 86.8597 91.24 86 91.2267Z" fill="#69BE28"/>
    <path d="M35.4828 30.4385H29.75V36.1713C29.75 37.0001 29.4208 37.7949 28.8348 38.381C28.2487 38.967 27.4538 39.2963 26.625 39.2963C25.7962 39.2963 25.0014 38.967 24.4153 38.381C23.8293 37.7949 23.5 37.0001 23.5 36.1713V30.4385H17.7673C16.9385 30.4385 16.1437 30.1093 15.5576 29.5232C14.9716 28.9372 14.6423 28.1423 14.6423 27.3135C14.6423 26.4847 14.9716 25.6899 15.5576 25.1038C16.1437 24.5178 16.9385 24.1885 17.7673 24.1885H23.5V18.4558C23.5 17.627 23.8293 16.8321 24.4153 16.2461C25.0014 15.66 25.7962 15.3308 26.625 15.3308C27.4538 15.3308 28.2487 15.66 28.8348 16.2461C29.4208 16.8321 29.75 17.627 29.75 18.4558V24.1885H35.4828C36.301 24.2045 37.0804 24.5407 37.6534 25.125C38.2264 25.7094 38.5474 26.4951 38.5474 27.3135C38.5474 28.1319 38.2264 28.9177 37.6534 29.502C37.0804 30.0863 36.301 30.4226 35.4828 30.4385ZM94.8578 24.1885H77.1423C76.3241 24.2045 75.5447 24.5408 74.9717 25.1251C74.3987 25.7094 74.0777 26.4952 74.0778 27.3136C74.0778 28.132 74.3988 28.9178 74.9718 29.5021C75.5449 30.0864 76.3243 30.4226 77.1425 30.4385H94.8578C95.676 30.4226 96.4554 30.0863 97.0284 29.502C97.6014 28.9177 97.9224 28.1319 97.9224 27.3135C97.9224 26.4951 97.6014 25.7094 97.0284 25.125C96.4554 24.5407 95.676 24.2045 94.8578 24.1885ZM154.233 46.0635H136.517C135.699 46.0795 134.92 46.4158 134.347 47.0001C133.774 47.5844 133.453 48.3702 133.453 49.1886C133.453 50.007 133.774 50.7928 134.347 51.3771C134.92 51.9614 135.699 52.2976 136.518 52.3135H154.233C155.051 52.2976 155.83 51.9613 156.403 51.377C156.976 50.7927 157.297 50.0069 157.297 49.1885C157.297 48.3701 156.976 47.5844 156.403 47C155.83 46.4157 155.051 46.0795 154.233 46.0635ZM154.233 61.6885H136.517C135.699 61.7045 134.92 62.0408 134.347 62.6251C133.774 63.2094 133.453 63.9952 133.453 64.8136C133.453 65.632 133.774 66.4178 134.347 67.0021C134.92 67.5864 135.699 67.9226 136.518 67.9385H154.233C155.051 67.9226 155.83 67.5863 156.403 67.002C156.976 66.4177 157.297 65.6319 157.297 64.8135C157.297 63.9951 156.976 63.2094 156.403 62.625C155.83 62.0407 155.051 61.7045 154.233 61.6885ZM35.0967 78.2169C34.8066 77.9266 34.4622 77.6964 34.0831 77.5393C33.704 77.3822 33.2976 77.3013 32.8873 77.3013C32.4769 77.3013 32.0705 77.3822 31.6914 77.5393C31.3123 77.6964 30.9679 77.9266 30.6778 78.2169L26.625 82.2696L22.5723 78.2169C21.9863 77.6309 21.1915 77.3017 20.3628 77.3017C19.5341 77.3017 18.7393 77.6309 18.1534 78.2169C17.5674 78.8029 17.2382 79.5976 17.2382 80.4263C17.2382 81.255 17.5674 82.0498 18.1534 82.6358L22.2061 86.6885L18.1534 90.7413C17.5674 91.3273 17.2382 92.122 17.2382 92.9507C17.2382 93.7794 17.5674 94.5742 18.1534 95.1602C18.7393 95.7462 19.5341 96.0754 20.3628 96.0754C21.1915 96.0754 21.9863 95.7462 22.5723 95.1602L26.625 91.1075L30.6778 95.1602C31.2638 95.7462 32.0586 96.0754 32.8873 96.0754C33.716 96.0754 34.5107 95.7462 35.0967 95.1602C35.6827 94.5742 36.0119 93.7794 36.0119 92.9507C36.0119 92.122 35.6827 91.3273 35.0967 90.7413L31.044 86.6885L35.0967 82.6358C35.387 82.3457 35.6172 82.0013 35.7743 81.6221C35.9314 81.243 36.0123 80.8367 36.0123 80.4263C36.0123 80.016 35.9314 79.6096 35.7743 79.2305C35.6172 78.8514 35.387 78.507 35.0967 78.2169ZM86 75.6017C85.1404 75.615 84.3205 75.9658 83.7173 76.5784C83.114 77.191 82.7759 78.0162 82.7759 78.876C82.7759 79.7357 83.114 80.561 83.7173 81.1736C84.3205 81.7862 85.1404 82.137 86 82.1503C86.8597 82.137 87.6796 81.7862 88.2828 81.1736C88.886 80.561 89.2242 79.7357 89.2242 78.876C89.2242 78.0162 88.886 77.191 88.2828 76.5784C87.6796 75.9658 86.8597 75.615 86 75.6017ZM86 91.2267C85.1404 91.24 84.3205 91.5908 83.7173 92.2034C83.114 92.816 82.7759 93.6412 82.7759 94.501C82.7759 95.3607 83.114 96.186 83.7173 96.7986C84.3205 97.4112 85.1404 97.762 86 97.7753C86.8597 97.762 87.6796 97.4112 88.2828 96.7986C88.886 96.186 89.2242 95.3607 89.2242 94.501C89.2242 93.6412 88.886 92.816 88.2828 92.2034C87.6796 91.5908 86.8597 91.24 86 91.2267Z" fill="#009B3A"/>
</svg>
