<svg xmlns:xlink="http://www.w3.org/1999/xlink" class="w-32" xmlns="http://www.w3.org/2000/svg" viewBox="0 0 3191.58 1684.44" width="3191.58"  height="1684.44" ><defs><style>.a{fill:#00aeef;}.b{fill:#00a851;}.c{fill:#68bd49;}.d,.e{fill:#ee7623;}.e{fill-rule:evenodd;}</style></defs><path class="a" d="M732.89,731.45V987H652.94V728.84c0-94.73-52.14-106-97.33-106-41.72,0-80,10.42-106.9,20.85V987h-80V388.15h80v179.9a317.2,317.2,0,0,1,114.72-21.72c107.76,0,169.46,66.92,169.46,185.12" transform="translate(-368.75 -388.15)" fill="#00AEEF"></path><path class="a" d="M1128.35,894v72.14c-40.83,17.38-92.1,28.68-153.82,28.68-91.25,0-199.89-38.24-199.89-219,0-56.5,0-229.44,192.06-229.44,116.46,0,191.2,82.56,191.2,209.46q0,31.28-2.6,60h-299c12.18,90.39,65.19,110.37,122.55,110.37,64.32,0,113-13,149.48-32.15M855.47,743.61H1078c-4.36-50.4-25.21-126-111.26-126-73,0-104.29,33-111.23,126" transform="translate(-368.75 -388.15)" fill="#00AEEF"></path><path class="a" d="M1563.31,728V853.12c0,33-13,140.8-179.9,140.8-170.35,0-183.39-109.51-183.39-143.4,0-86,76.47-137.33,204.24-137.33a574.88,574.88,0,0,1,79.08,5.22c-3.46-71.27-34.76-102.55-119.92-102.55-49.54,0-92.13,12.17-119.93,21.73v-67.8c32.15-12.16,75.61-23.46,131.21-23.46,120.82,0,188.61,64.31,188.61,181.64m-80,53.88c-20.85-3.48-46.92-5.22-75.6-5.22-37.38,0-128.62,11.31-128.62,73,0,49.54,35.62,73.88,104.29,73.88,66.06,0,99.93-23.47,99.93-71.27Z" transform="translate(-368.75 -388.15)" fill="#00AEEF"></path><rect class="a" x="1245.08" width="79.95" height="598.82" fill="#00AEEF"></rect><path class="a" d="M1892.49,620.2v252c0,37.37,24.33,51.28,65.17,51.28,22.61,0,51.19-6.08,62.47-13v71.27c-17.36,7-49.43,12.17-73.76,12.17-27.82,0-133-9.57-133-126.89V620.2h-75.62V553.28h75.62V389.52h79.1V553.28h127.64V620.2Z" transform="translate(-368.75 -388.15)" fill="#00AEEF"></path><path class="a" d="M2147.74,643.66c26.93-10.43,65.17-20.86,106.89-20.86,45.19,0,97.35,11.31,97.35,106V987h79.94V731.45c0-118.2-61.69-185.12-169.46-185.12a317.2,317.2,0,0,0-114.72,21.72V388.15h-80V908.49h80Z" transform="translate(-368.75 -388.15)" fill="#00AEEF"></path><rect class="b" x="1699.04" y="520.35" width="79.98" height="78.47" fill="#00A851"></rect><path class="c" d="M1324.4,1228.33v279h-79.09v-284.2c0-40.84-11.3-83.43-89.51-83.43-49.55,0-91.28,13.91-116.48,24.34,7,19.12,10.44,40.85,10.44,64.31v279h-80V1224c0-40.84-11.31-82.56-99.94-82.56-35.64,0-68.66,6.08-94.75,13v352.85H695.17v-398c15.64-7.82,88.64-43.45,180.78-43.45,47.79,0,86.89,12.16,115.57,33,32.16-13,90.4-33,159.06-33,109.51,0,173.82,60.84,173.82,162.52" transform="translate(-368.75 -388.15)" fill="#68BD49"></path><path class="c" d="M1740.73,1248.31v125.16c0,33-13,140.79-179.91,140.79-170.35,0-183.39-109.51-183.39-143.4,0-86,76.49-137.31,204.25-137.31a575.28,575.28,0,0,1,79.09,5.21c-3.49-71.26-34.77-102.55-119.94-102.55-49.54,0-92.12,12.16-119.95,21.72v-67.79c32.17-12.17,75.62-23.46,131.25-23.46,120.8,0,188.6,64.31,188.6,181.63m-80,53.89c-20.87-3.48-46.94-5.21-75.62-5.21-37.38,0-128.63,11.29-128.63,73,0,49.53,35.64,73.87,104.3,73.87,66,0,100-23.47,100-71.27Z" transform="translate(-368.75 -388.15)" fill="#68BD49"></path><path class="c" d="M1886.8,1508.25h-79.11V1192.46c0-117.34,120.33-126.9,148.14-126.9,24.34,0,56.41,5.22,73.78,12.17V1149c-11.3-7-39.89-13-62.47-13-40.86,0-80.34,13.91-80.34,51.28Z" transform="translate(-368.75 -388.15)" fill="#68BD49"></path><polygon class="c" points="1885.87 866.25 2074.49 685.48 1966.71 685.48 1778.99 867.12 1778.99 598.82 1699.02 598.82 1698.93 1119.16 1778.99 1119.16 1778.99 969.67 1832.86 917.53 1993.64 1119.16 2099.68 1119.16 1885.87 866.25" fill="#68BD49"></polygon><path class="c" d="M2815,1414.31v72.14c-40.85,17.39-92.13,28.68-153.83,28.68-91.26,0-199.9-38.24-199.9-219,0-56.48,0-229.43,192.08-229.43,116.46,0,191.19,82.56,191.19,209.45q0,31.29-2.61,60h-299c12.16,90.38,65.19,110.38,122.54,110.38,64.31,0,113-13,149.49-32.17M2542.05,1264h222.5c-4.34-50.41-25.21-126-111.24-126-73,0-104.3,33-111.26,126" transform="translate(-368.75 -388.15)" fill="#68BD49"></path><path class="c" d="M3008,1140.55v252c0,37.37,24.33,51.28,65.19,51.28,22.58,0,51.17-6.09,62.46-13v71.26c-17.37,7-49.44,12.17-73.77,12.17-27.81,0-133-9.56-133-126.88V1140.55H2853.3v-66.92h75.59V944.13H3008v129.5h127.65v66.92Z" transform="translate(-368.75 -388.15)" fill="#68BD49"></path><path class="c" d="M3446.35,1095.36V1164c-32.13-14.77-68.65-26.07-106.88-26.07-70.41,0-86.06,26.07-86.06,55.62,0,69.52,221.63,29.55,221.63,192.94,0,60-42.57,127.75-161.66,127.75-53,0-94.72-13.9-125.13-30.42v-72.13c27.81,15.65,67.78,32.16,121.67,32.16,59.1,0,85.18-25.2,85.18-53.89,0-97.34-220.77-44.32-220.77-193.8,0-62.58,40.84-129.5,155.58-129.5,41.71,0,81.68,11.29,116.44,28.68" transform="translate(-368.75 -388.15)" fill="#68BD49"></path><path class="c" d="M3521.76,1431.41c21.71,0,38.57,16.83,38.57,37.84,0,21.46-16.86,38.06-38.8,38.06-21.68,0-39-16.6-39-38.06,0-21,17.34-37.84,39-37.84Zm-.45,7.61c-16.6,0-29.09,13.61-29.09,30.23,0,16.86,12.49,30.24,29.54,30.24,16.63.23,28.85-13.38,28.85-30.24,0-16.62-12.22-30.23-29.08-30.23Zm-5.79,49.85h-8.76v-37.62a73.39,73.39,0,0,1,14.55-1.4c7.14,0,10.36,1.17,13.15,3a10.42,10.42,0,0,1,3.68,8.09c0,4.37-3.22,7.61-7.86,9v.45c3.73,1.18,5.79,4.15,6.95,9.26,1.16,5.77,1.86,8.07,2.77,9.22h-9.46c-1.16-1.39-1.83-4.63-3-9-.7-4.16-3-6-7.84-6h-4.18Zm.25-21.24h4.15c4.84,0,8.79-1.62,8.79-5.54,0-3.46-2.55-5.77-8.09-5.77a21.43,21.43,0,0,0-4.85.47Z" transform="translate(-368.75 -388.15)" fill="#68BD49"></path><path class="d" d="M628.49,1796.43,675.27,1724h28.8l-67.46,98.86-12.34,59.45H598.49l12.89-59.88L585.61,1724h26.2Z" transform="translate(-368.75 -388.15)" fill="#EE7623"></path><path class="d" d="M795,1807.37q0,21.87-7.91,39.79t-21.71,27.51q-13.8,9.58-31.78,9.58-20.79,0-33-12.4t-12.23-33.73a98.88,98.88,0,0,1,7.74-39.52q7.74-18,21.71-28t32.27-10q21.12,0,33,12.56T795,1807.37Zm-25.66-1.08q0-11.6-5.31-18.14t-15.16-6.55q-10.07,0-18,7.74t-12.34,21a89.43,89.43,0,0,0-4.39,28.31q0,12,5.36,18.41t15.86,6.39q9.75,0,17.55-7.36T765,1835.47A93.49,93.49,0,0,0,769.35,1806.29Z" transform="translate(-368.75 -388.15)" fill="#EE7623"></path><path class="d" d="M854.54,1762.54l-14,66q-3.35,15.27-3.35,20.9,0,14.4,13.75,14.4,7.8,0,15.49-6.17t13.64-17.6a104.26,104.26,0,0,0,9.2-26.8L900,1762.54h25.23L900,1882.3H880l2.27-22.2h-.86q-8.88,12.57-18.52,18.47a39.11,39.11,0,0,1-20.79,5.9q-14.51,0-22.41-8.23t-7.91-23.61a69.91,69.91,0,0,1,1.3-13.48q1.3-6.66,2.6-13.37L829,1762.54Z" transform="translate(-368.75 -388.15)" fill="#EE7623"></path><path class="d" d="M1011.32,1760.37a46.94,46.94,0,0,1,11.69,1.3l-5.52,23.72a44.13,44.13,0,0,0-11-1.52q-13.65,0-24.37,12.24t-14.94,32.05l-11.48,54.14H930.1l25.56-119.76h19.92l-2.27,22.2h1q9-13,18-18.68A35.05,35.05,0,0,1,1011.32,1760.37Z" transform="translate(-368.75 -388.15)" fill="#EE7623"></path><path class="d" d="M1069.64,1882.3,1103.32,1724h25.44l-33.67,158.31Z" transform="translate(-368.75 -388.15)" fill="#EE7623"></path><path class="d" d="M1198.37,1882.3l15.38-72.77a81.38,81.38,0,0,0,1.94-14.18q0-14.19-14-14.19-7.8,0-15.38,6.18t-13.64,17.81a100.48,100.48,0,0,0-9.1,26.37L1153,1882.3h-25.56L1153,1762.54h19.92l-2.27,22.2h1q9-12.78,18.52-18.57a39.11,39.11,0,0,1,20.68-5.8q14.52,0,22.47,8.23t8,23.39a102.22,102.22,0,0,1-2.49,19.6l-14.84,70.71Z" transform="translate(-368.75 -388.15)" fill="#EE7623"></path><path class="d" d="M1332.3,1845.49q0,18.72-12.78,28.85T1284,1884.47q-20.58,0-34.87-7.26v-22q16.57,9.75,33.79,9.75,10.5,0,17-4.34a13.49,13.49,0,0,0,6.5-11.8,13.3,13.3,0,0,0-3.74-9.47q-3.73-4-15.32-10.56-13.54-7.26-19.11-14.78a29.1,29.1,0,0,1-5.58-17.82q0-16.77,11.59-26.31t31.29-9.53q21.23,0,37.47,9.1l-8.23,19.06q-15.16-8.23-28.81-8.23-7.9,0-12.83,3.57a11.61,11.61,0,0,0-4.93,10,12.31,12.31,0,0,0,3.58,8.67q3.57,3.78,14.62,9.74,11.37,6.39,16.13,10.94a32.86,32.86,0,0,1,7.26,9.91A29.11,29.11,0,0,1,1332.3,1845.49Z" transform="translate(-368.75 -388.15)" fill="#EE7623"></path><path class="d" d="M1396.7,1762.54l-14,66q-3.36,15.27-3.36,20.9,0,14.4,13.75,14.4,7.8,0,15.49-6.17t13.64-17.6a104.26,104.26,0,0,0,9.2-26.8l10.72-50.78h25.23l-25.23,119.76h-20l2.28-22.2h-.87q-8.88,12.57-18.52,18.47a39.11,39.11,0,0,1-20.79,5.9q-14.51,0-22.41-8.23t-7.91-23.61a69.91,69.91,0,0,1,1.3-13.48q1.3-6.66,2.6-13.37l13.32-63.24Z" transform="translate(-368.75 -388.15)" fill="#EE7623"></path><path class="d" d="M1553.48,1760.37a46.94,46.94,0,0,1,11.69,1.3l-5.52,23.72a44.13,44.13,0,0,0-11-1.52q-13.65,0-24.37,12.24t-14.94,32.05l-11.48,54.14h-25.55l25.55-119.76h19.93l-2.28,22.2h1q9-13,18-18.68A35.08,35.08,0,0,1,1553.48,1760.37Z" transform="translate(-368.75 -388.15)" fill="#EE7623"></path><path class="d" d="M1595.36,1884.47q-15.27,0-24.14-11t-8.88-30.92a110.39,110.39,0,0,1,7.52-40.93q7.53-19.07,20.74-30.16t29-11.1a30.78,30.78,0,0,1,29.89,19.28h1.08l6.71-17.11h19.49l-25.55,119.76h-19.71l2.27-19.06h-.65Q1616.05,1884.47,1595.36,1884.47Zm9.32-20.58q8.86,0,17.43-8.39t14.08-22.47a83.48,83.48,0,0,0,5.52-30.75q0-9.52-5.09-15.32a16.89,16.89,0,0,0-13.32-5.8q-9.21,0-17.32,8.34t-13,22.69a91.72,91.72,0,0,0-4.87,29.72q0,11,4.38,16.51T1604.68,1863.89Z" transform="translate(-368.75 -388.15)" fill="#EE7623"></path><path class="d" d="M1751.06,1882.3l15.37-72.77a81.65,81.65,0,0,0,2-14.18q0-14.19-14-14.19-7.8,0-15.37,6.18t-13.65,17.81a100.84,100.84,0,0,0-9.09,26.37l-10.62,50.78h-25.55l25.55-119.76h19.93l-2.28,22.2h1q9-12.78,18.52-18.57a39.09,39.09,0,0,1,20.68-5.8q14.51,0,22.47,8.23t8,23.39a102.22,102.22,0,0,1-2.49,19.6l-14.84,70.71Z" transform="translate(-368.75 -388.15)" fill="#EE7623"></path><path class="d" d="M1855.09,1884.47q-21.21,0-32.91-11.48t-11.7-32.81q0-22.41,8-40.77t22.36-28.7a54.69,54.69,0,0,1,32.7-10.34,76.3,76.3,0,0,1,32.16,6.61l-7.58,19.92q-13.2-5.73-23.93-5.74-16.25,0-27.07,16.63t-10.83,41.09q0,12,6.07,18.52t16.78,6.49a46.15,46.15,0,0,0,15-2.38,118.61,118.61,0,0,0,14-5.85v21.12A71.91,71.91,0,0,1,1855.09,1884.47Z" transform="translate(-368.75 -388.15)" fill="#EE7623"></path><path class="d" d="M1953.5,1884.47q-21.33,0-33.29-12t-12-33.57a95.36,95.36,0,0,1,8.39-39.9q8.4-18.46,22.74-28.54a54.63,54.63,0,0,1,32.11-10.07q17.43,0,27.13,7.85t9.69,22.26q0,19.71-18,30.8t-51.38,11.1h-4.66l-.22,3.36v3.14q0,12,6.12,18.84t18.25,6.82a59.64,59.64,0,0,0,15.48-2,110.12,110.12,0,0,0,18.19-7v20.25a100.5,100.5,0,0,1-19.11,6.76A86.66,86.66,0,0,1,1953.5,1884.47ZM1970,1779.86q-10.39,0-19.54,9.32t-13.16,24.58h3.14q20.36,0,31.84-5.8t11.48-16.4q0-5.52-3.47-8.61T1970,1779.86Z" transform="translate(-368.75 -388.15)" fill="#EE7623"></path><path class="d" d="M2131.05,1882.3l-12.46-131.46H2118q-1,12.78-6,36.82l-19.92,94.64h-23.72L2101.81,1724h35l11.8,124.42h.65L2214.86,1724h37.25l-33,158.31H2194.5l19.71-94.42q4.23-20.14,9.31-37h-.65l-69.62,131.46Z" transform="translate(-368.75 -388.15)" fill="#EE7623"></path><path class="d" d="M2288.91,1884.47q-15.27,0-24.15-11t-8.88-30.92a110.59,110.59,0,0,1,7.52-40.93q7.53-19.07,20.74-30.16t29-11.1a30.76,30.76,0,0,1,29.89,19.28h1.08l6.71-17.11h19.5l-25.56,119.76h-19.71l2.28-19.06h-.65Q2309.59,1884.47,2288.91,1884.47Zm9.31-20.58q8.88,0,17.43-8.39t14.08-22.47a83.48,83.48,0,0,0,5.52-30.75q0-9.52-5.09-15.32a16.89,16.89,0,0,0-13.32-5.8q-9.2,0-17.32,8.34t-13,22.69a92,92,0,0,0-4.87,29.72q0,11,4.39,16.51T2298.22,1863.89Z" transform="translate(-368.75 -388.15)" fill="#EE7623"></path><path class="d" d="M2454.88,1760.37a47,47,0,0,1,11.7,1.3l-5.52,23.72a44.14,44.14,0,0,0-11-1.52q-13.64,0-24.36,12.24t-14.94,32.05l-11.48,54.14h-25.56l25.56-119.76h19.92l-2.27,22.2h1q9-13,18-18.68A35,35,0,0,1,2454.88,1760.37Z" transform="translate(-368.75 -388.15)" fill="#EE7623"></path><path class="d" d="M2549.61,1762.54h29.46l-52.31,52.52,31.52,67.24h-28.37l-22.64-51-14.72,10.4-8.34,40.6h-25.56l35.74-168.49h25.44q-14.61,67.89-17.27,79t-6.44,24.53h.43Z" transform="translate(-368.75 -388.15)" fill="#EE7623"></path><path class="d" d="M2620.52,1884.47q-21.34,0-33.3-12t-12-33.57a95.21,95.21,0,0,1,8.4-39.9q8.38-18.46,22.74-28.54a54.58,54.58,0,0,1,32.1-10.07q17.43,0,27.13,7.85t9.69,22.26q0,19.71-18,30.8t-51.38,11.1h-4.66l-.21,3.36v3.14q0,12,6.11,18.84t18.25,6.82a59.64,59.64,0,0,0,15.48-2,110.53,110.53,0,0,0,18.2-7v20.25a100.57,100.57,0,0,1-19.12,6.76A86.64,86.64,0,0,1,2620.52,1884.47ZM2637,1779.86q-10.39,0-19.55,9.32t-13.16,24.58h3.15q20.35,0,31.83-5.8t11.48-16.4q0-5.52-3.47-8.61T2637,1779.86Z" transform="translate(-368.75 -388.15)" fill="#EE7623"></path><path class="d" d="M2725.21,1863.89a47.11,47.11,0,0,0,16.35-3.35v19.27a47,47,0,0,1-10.29,3.25,61.07,61.07,0,0,1-13,1.41q-29.67,0-29.67-26.75a67.7,67.7,0,0,1,1.73-14.18l13.1-61.73H2685.9l2.27-11.91,20.58-8.88,14-25.12h15.81l-5.63,26.64h30.21l-4.23,19.27h-30l-13.21,61.94a44.7,44.7,0,0,0-1.41,10,10.11,10.11,0,0,0,2.71,7.42C2718.78,1863,2721.53,1863.89,2725.21,1863.89Z" transform="translate(-368.75 -388.15)" fill="#EE7623"></path><path class="d" d="M2814.41,1884.47q-19.59,0-29.13-19.06h-1.08a154.87,154.87,0,0,1-2.71,20l-10.39,50.14h-25.23l36.6-173h19.92l-2.27,20.36h1q17-22.53,37.25-22.53,15.49,0,24.26,11.16t8.77,31a111.7,111.7,0,0,1-7.58,41.31q-7.58,19.21-20.63,29.94T2814.41,1884.47Zm14.4-103.31q-8.76,0-17.43,8.61t-14.13,22.8a80.79,80.79,0,0,0-5.47,29.34q0,10.39,5,16.19t14.24,5.79q9.2,0,17.21-8.5t12.67-22.74a94.83,94.83,0,0,0,4.66-29.72Q2845.6,1781.17,2828.81,1781.16Z" transform="translate(-368.75 -388.15)" fill="#EE7623"></path><path class="d" d="M2906.65,1882.3h-25.34L2917,1713.81h25.45Z" transform="translate(-368.75 -388.15)" fill="#EE7623"></path><path class="d" d="M2974.85,1884.47q-15.27,0-24.15-11t-8.88-30.92a110.59,110.59,0,0,1,7.52-40.93q7.53-19.07,20.74-30.16t29-11.1a30.76,30.76,0,0,1,29.89,19.28h1.08l6.72-17.11h19.49l-25.56,119.76H3011l2.28-19.06h-.65Q2995.53,1884.47,2974.85,1884.47Zm9.31-20.58q8.88,0,17.43-8.39t14.08-22.47a83.48,83.48,0,0,0,5.52-30.75q0-9.52-5.09-15.32a16.89,16.89,0,0,0-13.32-5.8q-9.2,0-17.32,8.34t-13,22.69a92,92,0,0,0-4.87,29.72q0,11,4.39,16.51T2984.16,1863.89Z" transform="translate(-368.75 -388.15)" fill="#EE7623"></path><path class="d" d="M3109.31,1884.47q-21.21,0-32.91-11.48t-11.7-32.81q0-22.41,8-40.77t22.36-28.7a54.69,54.69,0,0,1,32.7-10.34,76.3,76.3,0,0,1,32.16,6.61l-7.58,19.92q-13.2-5.73-23.93-5.74-16.24,0-27.07,16.63t-10.83,41.09q0,12,6.07,18.52t16.78,6.49a46.15,46.15,0,0,0,15-2.38,118.61,118.61,0,0,0,14-5.85v21.12A71.91,71.91,0,0,1,3109.31,1884.47Z" transform="translate(-368.75 -388.15)" fill="#EE7623"></path><path class="d" d="M3207.72,1884.47q-21.33,0-33.29-12t-12-33.57a95.36,95.36,0,0,1,8.39-39.9q8.4-18.46,22.74-28.54a54.63,54.63,0,0,1,32.11-10.07q17.43,0,27.13,7.85t9.69,22.26q0,19.71-18,30.8t-51.38,11.1h-4.66l-.22,3.36v3.14q0,12,6.12,18.84t18.25,6.82a59.7,59.7,0,0,0,15.48-2,110.12,110.12,0,0,0,18.19-7v20.25a100.5,100.5,0,0,1-19.11,6.76A86.66,86.66,0,0,1,3207.72,1884.47Zm16.46-104.61q-10.39,0-19.54,9.32t-13.16,24.58h3.14q20.36,0,31.84-5.8t11.48-16.4q0-5.52-3.47-8.61T3224.18,1779.86Z" transform="translate(-368.75 -388.15)" fill="#EE7623"></path><path class="e" d="M1044.59,1975.76c67.46,35.2,112.09,98.83,109.34,95.33,4.41,2.17,8.36,1.77,14.41.17,22.75-6,327.4-117.55,780.92-109.5,45.82.81,54.86-13.62,9.33-20-366.45-51.36-794,9.5-910.66,18.67C1043.36,1960.79,1038.84,1972.76,1044.59,1975.76Z" transform="translate(-368.75 -388.15)" fill="#EE7623"></path></svg>